<?xml version="1.0" encoding="UTF-8" standalone="no"?>
<!-- Created with Inkscape (http://www.inkscape.org/) -->

<svg
   xmlns:dc="http://purl.org/dc/elements/1.1/"
   xmlns:cc="http://creativecommons.org/ns#"
   xmlns:rdf="http://www.w3.org/1999/02/22-rdf-syntax-ns#"
   xmlns:svg="http://www.w3.org/2000/svg"
   xmlns="http://www.w3.org/2000/svg"
   xmlns:sodipodi="http://sodipodi.sourceforge.net/DTD/sodipodi-0.dtd"
   xmlns:inkscape="http://www.inkscape.org/namespaces/inkscape"
   width="89mm"
   height="88mm"
   viewBox="0 0 89 88"
   version="1.1"
   id="svg8"
   inkscape:version="0.92.3 (2405546, 2018-03-11)"
   sodipodi:docname="w-geometric-vectors.svg">
  <sodipodi:namedview
     id="base"
     pagecolor="#ffffff"
     bordercolor="#666666"
     borderopacity="1.0"
     inkscape:pageopacity="1"
     inkscape:pageshadow="2"
     inkscape:zoom="0.98994949"
     inkscape:cx="488.08235"
     inkscape:cy="216.57357"
     inkscape:document-units="mm"
     inkscape:current-layer="layer1"
     showgrid="false"
     inkscape:window-width="1600"
     inkscape:window-height="870"
     inkscape:window-x="1600"
     inkscape:window-y="0"
     inkscape:window-maximized="1" />
  <defs
     id="defs2">
    <marker
       inkscape:isstock="true"
       style="overflow:visible"
       id="marker1645"
       refX="0"
       refY="0"
       orient="auto"
       inkscape:stockid="Arrow2Mend">
      <path
         transform="scale(-0.6)"
         d="M 8.7185878,4.0337352 -2.2072895,0.01601326 8.7185884,-4.0017078 c -1.7454984,2.3720609 -1.7354408,5.6174519 -6e-7,8.035443 z"
         style="fill:#00ff00;fill-opacity:1;fill-rule:evenodd;stroke:#00ff00;stroke-width:0.625;stroke-linejoin:round;stroke-opacity:1"
         id="path1643"
         inkscape:connector-curvature="0" />
    </marker>
    <marker
       inkscape:isstock="true"
       style="overflow:visible"
       id="marker1218"
       refX="0"
       refY="0"
       orient="auto"
       inkscape:stockid="Arrow2Mend">
      <path
         transform="scale(-0.6)"
         d="M 8.7185878,4.0337352 -2.2072895,0.01601326 8.7185884,-4.0017078 c -1.7454984,2.3720609 -1.7354408,5.6174519 -6e-7,8.035443 z"
         style="fill:#0000ff;fill-opacity:1;fill-rule:evenodd;stroke:#0000ff;stroke-width:0.625;stroke-linejoin:round;stroke-opacity:1"
         id="path1216"
         inkscape:connector-curvature="0" />
    </marker>
    <marker
       inkscape:isstock="true"
       style="overflow:visible"
       id="marker1184"
       refX="0"
       refY="0"
       orient="auto"
       inkscape:stockid="Arrow2Mend">
      <path
         transform="scale(-0.6)"
         d="M 8.7185878,4.0337352 -2.2072895,0.01601326 8.7185884,-4.0017078 c -1.7454984,2.3720609 -1.7354408,5.6174519 -6e-7,8.035443 z"
         style="fill:#ff00ff;fill-opacity:1;fill-rule:evenodd;stroke:#ff00ff;stroke-width:0.625;stroke-linejoin:round;stroke-opacity:1"
         id="path1182"
         inkscape:connector-curvature="0" />
    </marker>
    <marker
       inkscape:isstock="true"
       style="overflow:visible"
       id="marker1116"
       refX="0"
       refY="0"
       orient="auto"
       inkscape:stockid="Arrow2Mend">
      <path
         transform="scale(-0.6)"
         d="M 8.7185878,4.0337352 -2.2072895,0.01601326 8.7185884,-4.0017078 c -1.7454984,2.3720609 -1.7354408,5.6174519 -6e-7,8.035443 z"
         style="fill:#000000;fill-opacity:1;fill-rule:evenodd;stroke:#000000;stroke-width:0.625;stroke-linejoin:round;stroke-opacity:1"
         id="path1114"
         inkscape:connector-curvature="0" />
    </marker>
    <marker
       inkscape:isstock="true"
       style="overflow:visible"
       id="Arrow2Mend"
       refX="0"
       refY="0"
       orient="auto"
       inkscape:stockid="Arrow2Mend">
      <path
         transform="scale(-0.6)"
         d="M 8.7185878,4.0337352 -2.2072895,0.01601326 8.7185884,-4.0017078 c -1.7454984,2.3720609 -1.7354408,5.6174519 -6e-7,8.035443 z"
         style="fill:#000000;fill-opacity:1;fill-rule:evenodd;stroke:#000000;stroke-width:0.625;stroke-linejoin:round;stroke-opacity:1"
         id="path859"
         inkscape:connector-curvature="0" />
    </marker>
    <marker
       inkscape:isstock="true"
       style="overflow:visible"
       id="marker1184-6"
       refX="0"
       refY="0"
       orient="auto"
       inkscape:stockid="Arrow2Mend">
      <path
         transform="scale(-0.6)"
         d="M 8.7185878,4.0337352 -2.2072895,0.01601326 8.7185884,-4.0017078 c -1.7454984,2.3720609 -1.7354408,5.6174519 -6e-7,8.035443 z"
         style="fill:#ff00ff;fill-opacity:1;fill-rule:evenodd;stroke:#ff00ff;stroke-width:0.625;stroke-linejoin:round;stroke-opacity:1"
         id="path1182-7"
         inkscape:connector-curvature="0" />
    </marker>
  </defs>
  <metadata
     id="metadata5">
    <rdf:RDF>
      <cc:Work
         rdf:about="">
        <dc:format>image/svg+xml</dc:format>
        <dc:type
           rdf:resource="http://purl.org/dc/dcmitype/StillImage" />
        <dc:title></dc:title>
      </cc:Work>
    </rdf:RDF>
  </metadata>
  <g
     id="layer1"
     inkscape:groupmode="layer"
     inkscape:label="Layer 1"
     transform="translate(0,-209)">
    <g
       id="g2356"
       transform="translate(-21.648832,188.15775)">
      <path
         style="fill:none;stroke:#000000;stroke-width:0.5;stroke-linecap:butt;stroke-linejoin:miter;stroke-miterlimit:4;stroke-dasharray:none;stroke-opacity:1;marker-end:url(#Arrow2Mend)"
         d="M 26.994223,105.36775 V 25.367748"
         id="path10"
         inkscape:connector-curvature="0" />
      <path
         style="fill:none;stroke:#000000;stroke-width:0.5;stroke-linecap:butt;stroke-linejoin:miter;stroke-miterlimit:4;stroke-dasharray:none;stroke-opacity:1;marker-end:url(#marker1116)"
         d="M 27.144488,105.21773 H 107.1445"
         id="path10-3"
         inkscape:connector-curvature="0" />
      <path
         style="fill:#ff00ff;stroke:#ff00ff;stroke-width:0.40000001;stroke-linecap:butt;stroke-linejoin:miter;stroke-miterlimit:4;stroke-dasharray:none;stroke-opacity:1;marker-end:url(#marker1184)"
         d="M 27.144488,105.21773 81.91811,77.705351"
         id="path1178"
         inkscape:connector-curvature="0" />
      <path
         style="fill:#0000ff;stroke:#0000ff;stroke-width:0.40000001;stroke-linecap:butt;stroke-linejoin:miter;stroke-miterlimit:4;stroke-dasharray:none;stroke-opacity:1;marker-end:url(#marker1218)"
         d="M 27.144488,105.21773 32.339613,74.498117"
         id="path1180"
         inkscape:connector-curvature="0" />
      <path
         style="fill:#ff00ff;stroke:#ff00ff;stroke-width:0.40000001;stroke-linecap:butt;stroke-linejoin:miter;stroke-miterlimit:4;stroke-dasharray:none;stroke-opacity:1;marker-end:url(#marker1184-6)"
         d="M 32.339613,73.96895 87.113235,46.456571"
         id="path1178-5"
         inkscape:connector-curvature="0" />
      <path
         style="fill:#00ff00;stroke:#00ff00;stroke-width:0.40000001;stroke-linecap:butt;stroke-linejoin:miter;stroke-miterlimit:4;stroke-dasharray:none;stroke-opacity:1;marker-end:url(#marker1645)"
         d="M 27.144488,105.21773 87.113235,46.456571"
         id="path1623"
         inkscape:connector-curvature="0"
         sodipodi:nodetypes="cc" />
      <g
         transform="matrix(0.59523807,0,0,0.59523807,-101.98696,5.9486561)"
         id="g1833"
         style="fill:#ff00ff">
        <g
           style="font-style:normal;font-variant:normal;font-weight:normal;font-stretch:normal;letter-spacing:normal;word-spacing:normal;text-anchor:start;fill:#ff00ff;fill-opacity:1;fill-rule:evenodd;stroke:#000000;stroke-linecap:butt;stroke-linejoin:miter;stroke-miterlimit:10.43299961;stroke-dasharray:none;stroke-dashoffset:0;stroke-opacity:1"
           id="content"
           transform="matrix(0.3,0,0,-0.3,-52.5,222.75)"
           xml:space="preserve"
           stroke-miterlimit="10.433"
           font-style="normal"
           font-variant="normal"
           font-weight="normal"
           font-stretch="normal"
           font-size-adjust="none"
           letter-spacing="normal"
           word-spacing="normal"><path
             style="fill:#ff00ff;stroke-width:0"
             inkscape:connector-curvature="0"
             d="m 1242.2,358.69 5.8,6.49 c 0.7,0.7 1,1.04 5.1,1.04 v 2.35 c -1.7,-0.11 -4.3,-0.16 -4.6,-0.16 -1.2,0 -3.7,0.11 -5.1,0.16 v -2.35 c 0.7,0 1.3,-0.11 1.9,-0.45 -0.2,-0.3 -0.2,-0.39 -0.4,-0.59 l -4.2,-4.69 -4.9,5.73 h 2 v 2.35 c -1.3,-0.05 -4.4,-0.16 -6,-0.16 -1.6,0 -3.9,0.11 -5.5,0.16 v -2.35 h 3.5 l 7.8,-9.17 -6.5,-7.33 c -0.9,-0.93 -2.7,-0.93 -5,-0.93 v -2.35 c 1.7,0.1 4.3,0.16 4.5,0.16 1.3,0 4.2,-0.11 5.2,-0.16 v 2.35 c -0.9,0 -1.9,0.25 -1.9,0.54 0,0.05 0,0.1 0.4,0.5 l 4.8,5.42 5.5,-6.46 h -1.9 v -2.35 c 1.2,0.05 4.3,0.16 5.9,0.16 1.6,0 3.9,-0.11 5.5,-0.16 v 2.35 h -3.5 z"
             id="path1830" /></g>      </g>
      <g
         id="g1889"
         transform="matrix(0.59952036,0,0,0.59952036,-157.25274,-3.4105593)"
         style="fill:#0000ff">
        <g
           word-spacing="normal"
           letter-spacing="normal"
           font-size-adjust="none"
           font-stretch="normal"
           font-weight="normal"
           font-variant="normal"
           font-style="normal"
           stroke-miterlimit="10.433"
           xml:space="preserve"
           transform="matrix(0.3,0,0,-0.3,-52.5,222.75)"
           id="g1887"
           style="font-style:normal;font-variant:normal;font-weight:normal;font-stretch:normal;letter-spacing:normal;word-spacing:normal;text-anchor:start;fill:#0000ff;fill-opacity:1;fill-rule:evenodd;stroke:#000000;stroke-linecap:butt;stroke-linejoin:miter;stroke-miterlimit:10.43299961;stroke-dasharray:none;stroke-dashoffset:0;stroke-opacity:1"><path
             id="path1885"
             d="m 1249.8,365.18 0.1,0.12 v 0.12 l 0.1,0.06 v 0.05 0.06 l 0.1,0.05 v 0.04 l 0.1,0.05 v 0.04 l 0.1,0.05 v 0.04 l 0.1,0.03 0.1,0.04 0.1,0.03 0.1,0.03 0.1,0.03 0.1,0.03 0.1,0.03 0.1,0.02 0.1,0.01 0.1,0.01 0.1,0.01 v 0.01 l 0.1,0.01 0.1,0.01 0.1,0.01 h 0.1 l 0.1,0.01 0.1,0.01 h 0.1 l 0.1,0.01 h 0.1 l 0.1,0.01 h 0.1 0.2 l 0.1,0.01 h 0.1 0.2 0.1 0.1 0.2 v 2.35 c -1.2,-0.11 -2.7,-0.16 -3.9,-0.16 -1.3,0 -3.5,0.11 -4.6,0.16 v -2.35 c 0.1,0 2.4,0 2.4,-0.59 0,-0.06 -0.2,-0.55 -0.3,-0.61 l -5.7,-12.25 -6.3,13.45 h 2.7 v 2.35 c -1.7,-0.11 -6.2,-0.16 -6.2,-0.16 -1.4,0 -3.7,0.11 -5.7,0.16 v -2.35 h 3.2 l 9.3,-19.78 -1.1,-2.39 c -1.1,-2.39 -2.7,-5.78 -6.3,-5.78 -0.7,0 -0.8,0.05 -1.2,0.2 0.5,0.21 1.6,0.89 1.6,2.64 0,1.64 -1.2,2.85 -2.9,2.85 -1.3,0 -2.8,-0.96 -2.8,-2.89 0,-2.55 2.3,-4.6 5.3,-4.6 3.9,0 6.8,3.1 8.1,5.94 z"
             inkscape:connector-curvature="0"
             style="fill:#0000ff;stroke-width:0" /></g>      </g>
      <g
         transform="matrix(0.63420427,0,0,0.63420427,-131.13754,-31.946899)"
         id="g2178">
        <g
           style="font-style:normal;font-variant:normal;font-weight:normal;font-stretch:normal;letter-spacing:normal;word-spacing:normal;text-anchor:start;fill:none;fill-opacity:1;fill-rule:evenodd;stroke:#000000;stroke-linecap:butt;stroke-linejoin:miter;stroke-miterlimit:10.43299961;stroke-dasharray:none;stroke-dashoffset:0;stroke-opacity:1"
           id="g2176"
           transform="matrix(0.3,0,0,-0.3,-52.5,222.75)"
           xml:space="preserve"
           stroke-miterlimit="10.433"
           font-style="normal"
           font-variant="normal"
           font-weight="normal"
           font-stretch="normal"
           font-size-adjust="none"
           letter-spacing="normal"
           word-spacing="normal"><path
             style="fill:#0000ff;stroke-width:0"
             inkscape:connector-curvature="0"
             d="m 1158.4,365.18 v 0.12 l 0.1,0.12 v 0.06 l 0.1,0.05 v 0.06 0.05 l 0.1,0.04 v 0.05 l 0.1,0.04 v 0.05 l 0.1,0.04 0.1,0.03 0.1,0.04 v 0.03 l 0.1,0.03 0.1,0.03 0.2,0.03 0.1,0.03 0.1,0.02 0.1,0.01 0.1,0.01 v 0.01 l 0.1,0.01 0.1,0.01 0.1,0.01 0.1,0.01 h 0.1 l 0.1,0.01 0.1,0.01 h 0.1 l 0.1,0.01 h 0.1 l 0.1,0.01 h 0.1 0.1 l 0.2,0.01 h 0.1 0.1 0.2 0.1 0.2 v 2.35 c -1.2,-0.11 -2.7,-0.16 -4,-0.16 -1.2,0 -3.5,0.11 -4.5,0.16 v -2.35 c 0.1,0 2.3,0 2.3,-0.59 0,-0.06 -0.2,-0.55 -0.2,-0.61 l -5.7,-12.25 -6.4,13.45 h 2.7 v 2.35 c -1.6,-0.11 -6.1,-0.16 -6.2,-0.16 -1.4,0 -3.6,0.11 -5.6,0.16 v -2.35 h 3.1 l 9.4,-19.78 -1.2,-2.39 c -1.1,-2.39 -2.7,-5.78 -6.2,-5.78 -0.7,0 -0.8,0.05 -1.2,0.2 0.4,0.21 1.6,0.89 1.6,2.64 0,1.64 -1.2,2.85 -2.9,2.85 -1.4,0 -2.9,-0.96 -2.9,-2.89 0,-2.55 2.4,-4.6 5.4,-4.6 3.8,0 6.7,3.1 8.1,5.94 z"
             id="path2164" /><path
             style="fill:#000000;stroke-width:0"
             inkscape:connector-curvature="0"
             d="m 1195.5,357.89 h 13.9 c 0.7,0 1.7,0 1.7,1 0,1 -1,1 -1.7,1 h -13.9 v 13.96 c 0,0.69 0,1.64 -1,1.64 -0.9,0 -0.9,-0.95 -0.9,-1.64 v -13.96 h -14 c -0.7,0 -1.6,0 -1.6,-1 0,-1 0.9,-1 1.6,-1 h 14 v -13.93 c 0,-0.71 0,-1.66 0.9,-1.66 1,0 1,0.95 1,1.66 z"
             id="path2166" /><path
             style="fill:#ff00ff;stroke-width:0"
             inkscape:connector-curvature="0"
             d="m 1242.3,358.69 5.8,6.49 c 0.7,0.7 1,1.04 5.1,1.04 v 2.35 c -1.7,-0.11 -4.3,-0.16 -4.6,-0.16 -1.2,0 -3.7,0.11 -5.1,0.16 v -2.35 c 0.7,0 1.3,-0.11 1.9,-0.45 -0.2,-0.3 -0.2,-0.39 -0.4,-0.59 l -4.2,-4.69 -4.9,5.73 h 2 v 2.35 c -1.3,-0.05 -4.4,-0.16 -6,-0.16 -1.6,0 -3.8,0.11 -5.5,0.16 v -2.35 h 3.5 l 7.8,-9.17 -6.5,-7.33 c -0.8,-0.93 -2.6,-0.93 -5,-0.93 v -2.35 c 1.7,0.1 4.3,0.16 4.6,0.16 1.2,0 4.1,-0.11 5.1,-0.16 v 2.35 c -0.9,0 -1.9,0.25 -1.9,0.54 0,0.05 0,0.1 0.4,0.5 l 4.8,5.42 5.5,-6.46 h -1.9 v -2.35 c 1.3,0.05 4.3,0.16 6,0.16 1.5,0 3.8,-0.11 5.4,-0.16 v 2.35 h -3.5 z"
             id="path2168" /><path
             style="fill:#000000;stroke-width:0"
             inkscape:connector-curvature="0"
             d="m 1303.3,362.74 h 0.2 0.1 0.2 v 0.01 h 0.1 l 0.1,0.01 0.1,0.01 v 0.01 l 0.1,0.01 0.1,0.01 v 0.02 l 0.1,0.02 0.1,0.02 v 0.03 l 0.1,0.02 v 0.03 l 0.1,0.04 v 0.04 l 0.1,0.04 v 0.04 l 0.1,0.05 v 0.03 0.03 0.03 0.03 l 0.1,0.03 v 0.03 0.03 0.04 0.03 0.04 0.04 0.04 0.04 0.04 0.05 0.04 c 0,1 -0.9,1 -1.6,1 h -29.8 c -0.8,0 -1.7,0 -1.7,-1 0,-0.98 0.9,-0.98 1.7,-0.98 z"
             id="path2170" /><path
             style="fill:#000000;stroke-width:0"
             inkscape:connector-curvature="0"
             d="m 1303.4,353.07 h 0.1 v 0 h 0.2 0.1 l 0.1,0.01 v 0 l 0.1,0.01 0.1,0.01 v 0.01 l 0.1,0.01 0.1,0.01 v 0.02 l 0.1,0.02 0.1,0.02 v 0.03 l 0.1,0.02 v 0.04 l 0.1,0.03 v 0.04 l 0.1,0.04 v 0.05 l 0.1,0.02 v 0.03 0.02 0.03 0.03 0.03 l 0.1,0.03 v 0.04 0.03 0.04 0.03 0.04 0.04 0.04 0.04 0.05 0.04 0.05 c 0,1 -0.9,1 -1.7,1 h -29.7 c -0.8,0 -1.7,0 -1.7,-1 0,-1 0.9,-1 1.7,-1 z"
             id="path2172" /><path
             style="fill:#00ff00;stroke-width:0"
             inkscape:connector-curvature="0"
             d="m 1344.1,366.43 v 0.05 0.04 l 0.1,0.05 v 0.04 0.04 0.04 l 0.1,0.04 v 0.03 0.04 0.03 l 0.1,0.03 v 0.03 0.03 0.03 0.03 0.03 l 0.1,0.03 v 0.02 0.03 0.03 0.03 0.03 0.02 0.03 0.04 0.03 0.03 0.04 0.03 0.04 0.04 l 0.1,0.04 c 0,1.05 -0.8,1.05 -1.7,1.05 h -18.2 l -0.6,-8.72 h 2.3 c 0.3,5.12 1.8,6.92 7,6.92 h 4.2 l -13.9,-18.14 c -0.4,-0.55 -0.4,-0.64 -0.4,-1.09 0,-1.1 0.6,-1.1 1.6,-1.1 h 18.9 l 0.9,10.06 h -2.4 c -0.4,-5.03 -1.2,-8.06 -7.8,-8.06 h -4.3 z"
             id="path2174" /></g>      </g>
    </g>
  </g>
</svg>
